<svg id="Layer_1" xmlns="http://www.w3.org/2000/svg" viewBox="0 0 191 40"><style>.st0{fill:#507033}.st1{fill:#5d9741}.st2{fill:#5f6163}.st3{fill:#7bc143}</style><path class="st0" d="M18.5 37.7c-9.6 0-17.4-5.2-17.4-11.6 0-6.4 7.8-11.6 17.4-11.6 9.6 0 17.4 5.2 17.4 11.6 0 6.4-7.8 11.6-17.4 11.6zm0-21.1c-8.4 0-15.3 4.3-15.3 9.5s6.9 9.5 15.3 9.5 15.3-4.3 15.3-9.5-6.8-9.5-15.3-9.5z"/><path class="st1" d="M11.5 36.1c-2.9 0-5.5-1-7.4-2.8-2.4-2.4-3.4-5.8-2.8-9.8.6-3.8 2.6-7.7 5.7-10.8 3.8-3.9 8.7-6.2 13.2-6.2 2.9 0 5.5 1 7.4 2.8 2.4 2.4 3.4 5.8 2.8 9.8-.6 3.8-2.6 7.7-5.7 10.8-3.8 3.9-8.7 6.2-13.2 6.2zm8.7-27.5c-3.9 0-8.3 2.1-11.7 5.5-2.8 2.9-4.6 6.3-5.1 9.7-.5 3.3.3 6.1 2.2 8 1.5 1.4 3.5 2.2 5.9 2.2 3.9 0 8.3-2.1 11.7-5.5 2.8-2.9 4.6-6.3 5.1-9.7.5-3.3-.3-6.1-2.2-8-1.5-1.4-3.5-2.2-5.9-2.2z"/><path class="st2" d="M54.7 19.4h2.6c1.1-.1 2.1-.4 2.9-.8 1.5-.9 2.3-2.3 2.3-4.2 0-1.9-.7-3.4-2.2-4.5-.6-.5-1.4-.8-2.2-1-.8-.2-2-.3-3.7-.3h-9.5V9h.1c.7 0 1.2.2 1.6.4.4.2.8.5 1 .9.2.3.3.7.4 1.2.1.5.1 1.2.1 2.1V25c0 1.1-.1 1.9-.2 2.4s-.3.9-.7 1.3c-.3.3-.6.5-1 .7-.4.1-.9.2-1.5.3v.4h10v-.4c-.6 0-1.1-.1-1.5-.3-.4-.1-.7-.4-1-.7-.3-.3-.5-.8-.7-1.3-.1-.5-.2-1.3-.2-2.4v-5.6h3.4zM51.6 9H54.5c.9.1 1.6.4 2.3.9.6.5 1 1 1.3 1.8.3.7.4 1.5.4 2.4 0 1.5-.5 2.8-1.5 3.7-.4.4-.9.7-1.5.8-.6.2-1.4.2-2.4.2h-1.5V9zm11.7 7.8c.5 0 .9.1 1.1.3.3.1.5.4.7.7.2.3.3.6.4 1.1.1.4.1 1.2.1 2.3v4c0 .9 0 1.7-.1 2.2 0 .5-.1.9-.3 1.1-.2.4-.4.6-.7.8-.3.2-.7.3-1.4.4v.3h7.2v-.3c-.8-.2-1.4-.4-1.7-.7-.2-.2-.4-.5-.5-.8-.1-.4-.1-1-.1-1.7V16l-4.7.6v.2zm4.4-7.1c.3-.3.4-.6.4-1s-.1-.7-.4-1c-.3-.3-.6-.4-1-.4s-.8.1-1 .4c-.3.3-.4.6-.4 1s.1.8.4 1c.3.3.6.4 1.1.4.3 0 .6-.1.9-.4zm3.6 6.8v.3c.5 0 .9.1 1.1.3.3.1.5.4.7.7.2.3.3.6.4 1.1.1.4.1 1.2.1 2.3v4c0 .9 0 1.7-.1 2.2 0 .5-.1.9-.3 1.1-.2.4-.4.6-.7.8-.3.2-.7.3-1.4.4v.3h7.2v-.3c-.8-.2-1.4-.4-1.7-.7-.2-.2-.4-.5-.5-.8-.1-.3-.1-.9-.1-1.6v-4.2c0-1 .1-1.8.2-2.4.1-.6.3-1.2.6-1.6.3-.5.7-.9 1.3-1.2.5-.3 1.1-.4 1.7-.4.5 0 1 .1 1.5.3.4.2.8.5 1 .9.2.4.4.8.5 1.4.1.6.1 1.5.1 2.8v3c0 .9 0 1.7-.1 2.2 0 .5-.1.9-.3 1.1-.2.4-.4.6-.7.8-.3.2-.7.3-1.4.4v.3h7.2v-.3c-.8-.2-1.4-.4-1.7-.7-.2-.2-.4-.5-.5-.8-.1-.3-.1-.9-.1-1.6v-4.3c0-1.8.3-3.1.8-4 .6-1 1.6-1.5 2.9-1.5 1.2 0 2.1.5 2.6 1.4.2.4.4.9.4 1.4.1.6.1 1.4.1 2.6v3.1c0 .9 0 1.7-.1 2.2 0 .5-.1.9-.3 1.1-.2.4-.4.6-.7.8-.3.2-.7.3-1.4.4v.3h7.2v-.3c-.8-.2-1.4-.4-1.7-.7-.2-.2-.4-.5-.5-.8-.1-.3-.1-.9-.1-1.6V20c0-1.1-.4-2.1-1.2-2.8-.8-.7-1.9-1.1-3.2-1.1-1 0-1.9.2-2.7.6-.8.4-1.7 1-2.5 1.8-.5-.8-1-1.3-1.4-1.6-.7-.5-1.5-.8-2.5-.8-.9 0-1.8.2-2.7.6-.8.4-1.6.9-2.3 1.7-.1-.7-.2-1.5-.4-2.3l-4.3.4zm39.6 12.6c-.2.1-.5.2-.8.2-.7 0-1.1-.4-1.3-1.2-.1-.4-.1-1.1-.1-2.1v-6c0-.8 0-1.3-.1-1.6-.2-.6-.6-1.2-1.3-1.6-.5-.3-1.1-.5-1.8-.7-.7-.2-1.4-.3-2.1-.3-.6 0-1.2.1-1.8.2-.6.1-1.1.3-1.6.5-.8.4-1.2.8-1.2 1.4 0 .4.1.7.4.9.2.2.6.4.9.4.6 0 1-.3 1.2-.8l.4-.9c.2-.4.4-.7.8-.9.3-.2.7-.3 1.2-.3.4 0 .7.1 1.1.2.3.2.6.4.8.6.5.6.7 1.5.7 2.8 0 .6-.1 1.1-.2 1.4-.1.3-.4.6-.7.9-.3.2-.7.4-1.1.6-.4.2-1.1.4-2.1.6-.8.2-1.4.4-1.8.6-.4.2-.8.5-1.1.8-.6.6-.9 1.4-.9 2.3 0 1 .3 1.7 1 2.3.7.6 1.6.9 2.8.9.9 0 1.7-.2 2.5-.6.4-.2.9-.6 1.6-1.3.4.6.7 1 1 1.3.5.4 1.1.6 1.9.6 1.4 0 2.3-.6 2.7-1.7l-.3-.2c-.3.3-.5.6-.7.7zm-4.7-4.4c0 1.4-.2 2.4-.5 3.1-.2.6-.6 1-1.1 1.3-.5.3-1 .5-1.5.5-.6 0-1.1-.2-1.5-.7-.4-.5-.6-1.1-.6-1.8 0-.8.3-1.6.8-2.2.2-.3.5-.6.8-.8.3-.2.8-.5 1.6-1 .7-.4 1.3-.8 1.9-1.3v2.9h.1zM126.3 33.7c0 .1-.1.1-.1.1 0 .1-.1.1-.2.1h-.2l-.4-.1c-.4-.1-.8-.2-1.2-.2-.4 0-.8.1-1.1.2-.4.1-.7.3-1 .5-.4.3-.6.7-.8 1.1-.2.5-.3 1-.3 1.5 0 .7.2 1.3.5 1.9.3.5.8.9 1.4 1.1.4.1.8.2 1.2.2.4 0 .8-.1 1.2-.2.3-.1.6-.3.8-.6.2-.3.3-.7.4-1.1h-.1c-.1.4-.2.8-.4 1-.2.2-.4.4-.6.5-.3.1-.6.2-.9.2-.7 0-1.2-.2-1.6-.7-.2-.3-.4-.6-.5-1-.1-.4-.2-.8-.2-1.3 0-.6.1-1.1.3-1.5.1-.3.3-.6.5-.8l.6-.6c.2-.1.5-.2.9-.2.2 0 .4 0 .6.1.2.1.4.2.5.3.2.2.4.4.5.7.1.1.2.4.3.6 0 0 0 .1.1.2h.1l-.1-2h-.2zm2.9 3.1h.3c.1 0 .2.1.3.1.2.1.3.3.5.7.2.3.4.7.6 1.1l.3.7s.1.1.1.3h1.5v-.1c-.1 0-.2 0-.3-.1-.1 0-.1-.1-.2-.2s-.2-.3-.3-.6c-.1-.3-.3-.7-.6-1.2-.1-.2-.2-.4-.3-.5-.1-.1-.1-.2-.2-.2-.1-.1-.2-.2-.4-.2.2 0 .4-.1.5-.2.1-.1.3-.1.4-.2.4-.3.5-.7.5-1.1 0-.3-.1-.6-.2-.8-.2-.2-.4-.4-.7-.5-.3-.1-.6-.2-1.1-.2H127v.1c.2 0 .3 0 .4.1.1 0 .2.1.3.2.1.1.2.2.2.4 0 .1.1.4.1.7v3.3c0 .3 0 .5-.1.7 0 .1-.1.3-.2.4-.1.1-.2.1-.3.2-.1 0-.2.1-.4.1v.1h2.9v-.1c-.2 0-.3 0-.4-.1-.1 0-.2-.1-.3-.2-.1-.1-.2-.2-.2-.4 0-.1-.1-.4-.1-.7v-1.6h.3zm-.2-3h.2c.3 0 .6 0 .7.1.2 0 .3.1.4.2.2.1.3.3.4.5.1.2.1.4.1.7 0 .4-.2.8-.5 1.1-.1.1-.3.2-.5.3-.2 0-.4.1-.8.1v-3zm4-.1v.1c.2 0 .3 0 .4.1.1 0 .2.1.3.2.1.1.2.2.2.4 0 .1.1.4.1.7v3.3c0 .3 0 .5-.1.7 0 .1-.1.3-.2.4-.1.1-.2.1-.3.2-.1 0-.2.1-.4.1v.1h5.4l.1-1.8h-.1c-.1.3-.1.5-.2.7-.1.2-.2.3-.3.4-.2.2-.4.3-.6.4-.2.1-.5.1-.9.1-.3 0-.6-.1-.8-.2-.2-.1-.4-.3-.5-.5-.1-.1-.1-.3-.1-.5v-1.9h.3c.2 0 .4 0 .5.1.1 0 .3.1.4.2.1.1.2.2.2.4.1.1.1.3.1.6h.1v-2.4h-.1c0 .2-.1.4-.1.5 0 .1-.1.2-.2.3-.1.1-.2.2-.3.2s-.3.1-.6.1h-.3V34h1c.3 0 .6 0 .8.1.2 0 .4.1.5.2.2.1.3.3.4.4.1.2.2.4.2.6h.1l-.1-1.5H133v-.1zm5.7 6.1h3.3c.4 0 .8 0 1.1-.1.5-.1.9-.3 1.2-.7.2-.2.4-.5.6-.9.1-.4.2-.8.2-1.2 0-.6-.1-1.1-.4-1.6-.2-.5-.6-.9-1-1.2-.4-.3-1-.5-1.6-.5h-3.5v.1c.3 0 .5.1.6.2.1.1.2.2.2.4s.1.4.1.7v3.3c0 .3 0 .5-.1.7 0 .1-.1.3-.2.4-.1.1-.2.1-.3.2-.1 0-.2.1-.4.1v.1h.2zm2.5-6c.4 0 .7 0 1 .1.5.1.9.4 1.2.8.2.3.4.6.6 1 .1.4.2.8.2 1.2 0 .4-.1.7-.2 1.1-.1.3-.3.6-.5.9-.2.3-.4.5-.7.6-.3.1-.6.2-.9.2-.4 0-.7-.1-.9-.4-.1-.1-.2-.2-.2-.4s-.1-.4-.1-.7v-4.5h.5v.1zm4.7-.1v.1c.2 0 .3 0 .4.1.1 0 .2.1.3.2.1.1.2.2.2.4v4.7c0 .1-.1.3-.2.4-.1.1-.2.1-.3.2-.1 0-.2.1-.4.1v.1h2.9v-.1c-.2 0-.4 0-.5-.1-.1-.1-.2-.1-.3-.3-.1-.1-.1-.2-.1-.3v-3.9-.5c0-.2.1-.4.2-.5.1-.1.2-.2.3-.2.1 0 .2-.1.4-.1v-.1h-2.9v-.2zm5.7 4.7c0 .3 0 .5-.1.7 0 .1-.1.3-.2.4-.1.1-.2.1-.3.2-.1 0-.2.1-.4.1v.1h2.9v-.1c-.2 0-.3 0-.4-.1-.1 0-.2-.1-.3-.2-.1-.1-.2-.2-.2-.4 0-.1-.1-.4-.1-.7v-4.6c.7 0 1.1 0 1.4.1.3.1.6.2.8.5.2.2.3.5.4.9h.1l-.1-1.7H149l-.1 1.7h.1c.1-.4.2-.6.3-.9.1-.2.3-.4.6-.5.2-.1.6-.2 1-.2h.6v4.7h.1zm6.2-4.7v.1c.2 0 .3 0 .4.1.1 0 .2.1.3.2.1.1.2.2.2.4V38.6c.1.4.2.7.5.9.4.4 1 .5 1.9.5.8 0 1.4-.2 1.9-.6.2-.2.3-.3.4-.5.1-.2.1-.5.1-.9v-2.8c0-.3 0-.5.1-.7 0-.1.1-.3.2-.4.1-.1.2-.2.3-.2.1 0 .2-.1.4-.1v-.1h-2.1v.1c.2 0 .3 0 .4.1.1 0 .2.1.3.2.1.1.2.2.2.4 0 .1.1.4.1.7v3.4c0 .2-.1.3-.1.5-.1.1-.1.2-.3.3-.2.2-.4.3-.7.4-.3.1-.6.1-.9.1-.3 0-.6-.1-.8-.2-.2-.1-.4-.3-.5-.5-.1-.2-.2-.3-.2-.5v-3.4-.8c0-.2.1-.3.2-.4.1-.1.2-.2.3-.2.1 0 .2-.1.4-.1v-.1h-3zm12.3 6.1h.2v-4.7c0-.3 0-.5.1-.7 0-.1.1-.3.2-.4.2-.2.4-.3.7-.3v-.1h-2.1v.1c.2 0 .3 0 .4.1.1 0 .2.1.3.2.1.1.2.2.2.4 0 .1.1.4.1.7v3.3l-3.7-4.7h-1.7v.1c.2 0 .3 0 .4.1.1 0 .2.1.3.2.1.1.2.2.2.4 0 .1.1.4.1.7v3.3c0 .3 0 .5-.1.7 0 .1-.1.3-.2.4-.1.1-.2.1-.3.2-.1 0-.2.1-.4.1v.1h2.1v-.1c-.2 0-.3 0-.4-.1-.1 0-.2-.1-.3-.2-.1-.1-.2-.2-.2-.4 0-.1-.1-.4-.1-.7v-3.9l4.2 5.2zm1.6-6.1v.1c.2 0 .3 0 .4.1.1 0 .2.1.3.2.1.1.2.2.2.4v4.7c0 .1-.1.3-.2.4-.1.1-.2.1-.3.2-.1 0-.2.1-.4.1v.1h2.9v-.1c-.2 0-.4 0-.5-.1-.1-.1-.2-.1-.3-.3-.1-.1-.1-.2-.1-.3v-3.9-.5c0-.2.1-.4.2-.5.1-.1.2-.2.3-.2.1 0 .2-.1.4-.1v-.1h-2.9v-.2zm3.8 4.2c.1.4.3.7.6 1 .3.4.7.6 1.1.8.4.2.9.3 1.4.3.5 0 .9-.1 1.4-.3.4-.2.8-.5 1.2-.9.3-.3.5-.6.6-1 .1-.4.2-.7.2-1.1 0-.8-.3-1.5-.8-2.1-.3-.4-.7-.7-1.1-.9-.4-.2-.9-.3-1.3-.3s-.7.1-1.1.2c-.4.1-.7.3-1 .5-.4.3-.7.7-.9 1.1-.2.4-.3.9-.3 1.4-.2.6-.2 1 0 1.3zm1.1-2.4c.1-.4.3-.8.5-1.1.2-.2.4-.4.6-.5.2-.1.5-.2.8-.2.3 0 .6.1.8.2.2.1.4.3.6.5.2.3.4.7.6 1.1.1.4.2.9.2 1.4 0 .9-.2 1.6-.7 2.2-.2.3-.4.5-.7.6-.2.1-.5.2-.8.2-.3 0-.6-.1-.8-.2-.2-.1-.5-.3-.7-.6-.5-.6-.7-1.3-.7-2.2.1-.5.1-1 .3-1.4zm11.3 4.3h.2v-4.7c0-.3 0-.5.1-.7 0-.1.1-.3.2-.4.2-.2.4-.3.7-.3v-.1H187v.1c.2 0 .3 0 .4.1.1 0 .2.1.3.2.1.1.2.2.2.4 0 .1.1.4.1.7v3.3l-3.7-4.7h-1.7v.1c.2 0 .3 0 .4.1.1 0 .2.1.3.2.1.1.2.2.2.4 0 .1.1.4.1.7v3.3c0 .3 0 .5-.1.7 0 .1-.1.3-.2.4-.1.1-.2.1-.3.2-.1 0-.2.1-.4.1v.1h2.1v-.1c-.2 0-.3 0-.4-.1-.1 0-.2-.1-.3-.2-.1-.1-.2-.2-.2-.4 0-.1-.1-.4-.1-.7v-3.9l4.2 5.2z"/><path class="st1" d="M122.4 15.7h-3l.9-3.2c.5-1.8 1.6-5.7 4.3-5.7.6 0 .9.3 1.4.9.4.5.7 1.2 1.5 1.2.7 0 .9-.7.9-.9 0-1-1.2-2-3.1-2-5.2 0-7 5.9-7.9 9.8H114l-.3.8h3.4l-2.7 9.9c-2.1 7.9-3.8 11.2-6.8 11.2-1.2 0-1.4-.6-1.4-.9 0-.3.1-.5.1-.8 0-.6-.5-1.3-1.3-1.3-.6 0-1.2.5-1.2 1.3 0 1.6 2.3 2.4 3.9 2.4 5.7 0 7.9-7.9 8.9-11.7l2.7-10.2h3l.1-.8zm6.6 10.1c-1 2.2-2.4 3.8-4 3.8-.2 0-1.7 0-1.7-2.2 0-.8.3-2.1.5-2.8 3.7-1.5 7.2-3.8 7.2-6.6 0-.6-.2-2.1-1.9-2.1-3 0-7.8 5.7-7.8 11.1 0 2.7 1.7 3.6 3.1 3.6 2.3 0 4.2-2 5.4-4.8h-.8zm-5-2c1.4-5 3.5-7 4.6-7 .4 0 1.1.2 1.1 1.3 0 2-3.4 4.7-5.7 5.7zm19.8 3.2c-.7 1.2-1.8 2.3-2.4 2.3-.5 0-.6-.5-.6-.8 0-.5.2-1.2.4-2.2L147.1 7h-.3c-.9.3-2.4.7-4 .7l-.2.7c1.4 0 1.8 0 1.8.8 0 .1-.2.8-.4 1.4l-2 6.7c-.4-.8-1.2-1.4-2.1-1.4-3.5 0-8.1 5.8-8.1 11.1 0 1.6.7 3.6 2.7 3.6 1.9 0 3.6-2.2 4.4-3-.2 2.2.5 3 1.7 3 1.4 0 3-1.8 4-3.5h-.8V27zm-10.1.7c0-3 3.3-11 6.3-11 .9 0 1.5.8 1.5 1.6 0 .6-.8 3.7-1.6 5.7-1.4 3.4-3.4 5.6-4.9 5.6-1.3.1-1.3-1.6-1.3-1.9zm19.9-1.9c-1 2.2-2.4 3.8-4 3.8-.2 0-1.7 0-1.7-2.2 0-.8.3-2.1.5-2.8 3.7-1.5 7.2-3.8 7.2-6.6 0-.6-.2-2.1-1.9-2.1-3 0-7.8 5.7-7.8 11.1 0 2.7 1.7 3.6 3.1 3.6 2.3 0 4.2-2 5.4-4.8h-.8zm-4.9-2c1.4-5 3.5-7 4.6-7 .4 0 1.1.2 1.1 1.3-.1 2-3.5 4.7-5.7 5.7zm8.4-3.4c.5-1.2 1.6-3.4 2.6-3.4.6 0 .5.9.5 1 0 1-.6 2.9-1.2 4.7l-2.3 7.5h2l.5-1.7c1-3 3.9-11.1 5.2-11.1.2 0 .3.2.5.4s.4.4.8.4c.5 0 1-.4 1-1.1 0-.7-.5-1.3-1.3-1.3-2 0-3.6 4.4-4.6 6.7.2-1 .8-2.9.8-4.4 0-1.7-.7-2.3-1.4-2.3-1.8 0-3.2 2.8-3.9 4.5h.8v.1zm19.8-4.2l-.4 1.5c-.2-1.2-1.1-1.8-2.1-1.8-3 0-8.3 5.6-8.3 11 0 2.5 1.5 3.7 2.8 3.7 2.1 0 4.2-2.7 4.9-4-.3.9-.4 1.7-.4 2 0 .8.3 2 1.6 2s3-1.7 4.1-4h-.7c-.7 1.2-1.7 2.6-2.6 2.6-.5 0-.6-.4-.6-.7 0-.4.4-1.9.7-2.6l3-9.8h-2v.1zm-8.8 11.2c0-2.9 3.4-10.6 6.4-10.6.9 0 1.4.7 1.4 1.7s-.9 4.5-2.3 7.3c-1.2 2.4-3.1 3.9-4.2 3.9-1.3-.1-1.3-1.5-1.3-2.3zm18.6-1.3c-.9 2.2-2.2 3.5-3 3.5-.4 0-.8-.3-.8-1.1 0-.7.4-2.1.6-2.6L189.2 7h-.4c-1 .4-2.1.6-4.1.6l-.2.7h.6c.8 0 1.4 0 1.4.8 0 .5-.5 2-.6 2.3l-4.4 14.4c-.1.3-.5 1.8-.5 2.6 0 1.1.7 2.2 2 2.2 2.2 0 3.7-2.7 4.4-4.5h-.7z"/><g><path class="st2" d="M187.4 29.9c0-.2 0-.5.1-.7.1-.2.2-.4.4-.6.2-.2.4-.3.6-.4.2-.1.5-.1.7-.1.2 0 .5 0 .7.1.2.1.4.2.6.4.2.2.3.3.4.6.1.2.1.4.1.7 0 .2 0 .5-.1.7-.1.2-.2.4-.4.6-.2.2-.3.3-.6.4-.2.1-.4.1-.7.1-.2 0-.5 0-.7-.1-.2-.1-.4-.2-.6-.4-.2-.2-.3-.3-.4-.6 0-.2-.1-.4-.1-.7zm.2 0c0 .2 0 .4.1.6.1.2.2.4.4.5.1.1.3.3.5.3.2.1.4.1.6.1.2 0 .4 0 .6-.1.2-.1.4-.2.5-.3.1-.1.3-.3.3-.5.1-.2.1-.4.1-.6 0-.2 0-.4-.1-.6-.1-.2-.2-.4-.3-.5-.1-.1-.3-.3-.5-.4-.2-.1-.4-.1-.6-.1-.2 0-.4 0-.6.1-.2.1-.4.2-.5.4-.1.1-.3.3-.4.5 0 .2-.1.4-.1.6zm2.2 1l-.6-.9h-.4v.9h-.2v-2h.7c.2 0 .4 0 .5.1.1.1.2.2.2.4s-.1.3-.2.4c-.1.1-.2.1-.4.1l.6.9h-.2zm0-1.4c0-.2 0-.3-.1-.3-.1-.1-.2-.1-.3-.1h-.5v.8h.4c.2 0 .3 0 .4-.1 0-.1.1-.2.1-.3z"/></g><g><path class="st3" d="M10.6 36.5c-.4 0-.8 0-1.3-.1-6.5-1-10.6-10-9-20.1C1.8 7 7.6 0 13.8 0c.4 0 .8 0 1.3.1 3.3.5 6 2.9 7.6 6.8 1.6 3.7 2.1 8.4 1.3 13.2-1.4 9.4-7.2 16.4-13.4 16.4zm3.2-34.4C8.7 2.1 3.7 8.5 2.4 16.7 1 25.6 4.2 33.5 9.6 34.4c5.4.9 11-5.9 12.4-14.6.7-4.4.3-8.7-1.2-12.1-1.4-3.2-3.5-5.2-6.1-5.6h-.9z"/></g></svg>