<?xml version="1.0" encoding="utf-8"?>
<!-- Generator: Adobe Illustrator 22.0.1, SVG Export Plug-In . SVG Version: 6.00 Build 0)  -->
<svg version="1.1" xmlns="http://www.w3.org/2000/svg" xmlns:xlink="http://www.w3.org/1999/xlink" x="0px" y="0px" width="385px"
	 height="83px" viewBox="0 0 385 83" style="enable-background:new 0 0 385 83;" xml:space="preserve">
<style type="text/css">
	.st0{fill:none;}
	.st1{fill:#10384F;}
	.st2{fill:#89D329;}
	.st3{fill:#00BCFF;}
	.st4{fill:#66B512;}
</style>
<g id="Background__x2013__does_NOT_print">
	<rect x="-2.99" y="-2.8" class="st0" width="289.13" height="289.13"/>
</g>
<g id="Bayer_Cross">
	<g>
		<g>
			<path class="st1" d="M39.04,12.33h4.78c0.53,0,0.96-0.43,0.96-0.96c0-0.53-0.43-0.96-0.96-0.96h-4.78V12.33z M39.04,16.98h4.92
				c0.6,0,1.09-0.49,1.09-1.09c0-0.6-0.49-1.09-1.09-1.09h-4.92V16.98z M46.73,13.46c0.65,0.63,1.05,1.52,1.05,2.5
				c0,1.92-1.56,3.48-3.48,3.49h-8V7.95l7.87,0c1.85,0,3.34,1.5,3.34,3.35C47.51,12.12,47.21,12.87,46.73,13.46z"/>
			<path class="st1" d="M48.57,33.11h-2.93l-0.92-1.91h-6.42l-0.93,1.91h-2.93l5.74-11.48h2.66L48.57,33.11z M41.49,24.57
				l-2.02,4.17h4.03L41.49,24.57z"/>
			<polygon class="st1" points="45.39,35.57 48.68,35.57 42.86,43.05 42.86,47.05 40.13,47.05 40.13,43.05 34.31,35.57 37.6,35.57 
				41.5,40.8 			"/>
			<polygon class="st1" points="60.61,35.57 60.61,38.03 52.96,38.03 52.96,39.95 60.34,39.95 60.34,42.4 52.96,42.4 52.96,44.59 
				60.61,44.59 60.61,47.05 50.23,47.05 50.23,35.57 			"/>
			<path class="st1" d="M69.06,42.68h-2.05v4.37h-2.73V35.57h6.98c1.96,0.01,3.54,1.6,3.54,3.56c0,1.62-1.07,2.98-2.55,3.41
				l3.37,4.51h-3.28L69.06,42.68z M70.98,38.03h-3.97v2.19h3.97c0.6,0,1.09-0.49,1.09-1.09C72.06,38.52,71.58,38.04,70.98,38.03z"/>
			<path class="st1" d="M35.58,47.05h-2.93l-0.92-1.91H25.3l-0.93,1.91h-2.93l5.74-11.48h2.66L35.58,47.05z M28.51,38.51l-2.02,4.17
				h4.03L28.51,38.51z"/>
			<path class="st1" d="M11.18,39.95h4.78c0.53,0,0.96-0.43,0.96-0.96c0-0.53-0.43-0.96-0.96-0.96l-4.78,0V39.95z M11.18,44.6h4.92
				c0.6,0,1.09-0.49,1.09-1.1c0-0.6-0.49-1.09-1.09-1.09h-4.92V44.6z M18.86,41.08c0.65,0.63,1.05,1.52,1.05,2.5
				c0,1.92-1.56,3.48-3.48,3.49h-8V35.58h7.87c1.85,0,3.34,1.5,3.34,3.35C19.65,39.75,19.35,40.5,18.86,41.08z"/>
			<polygon class="st1" points="46.69,49.51 46.69,51.97 39.03,51.97 39.03,53.89 46.41,53.88 46.41,56.34 39.03,56.34 39.03,58.53 
				46.69,58.53 46.69,60.99 36.3,60.99 36.3,49.51 			"/>
			<path class="st1" d="M44.77,67.28c0-0.6-0.48-1.09-1.08-1.09h-4.65v2.19h4.65C44.29,68.37,44.77,67.88,44.77,67.28z M36.3,75.2
				V63.72h7.67c1.95,0.01,3.53,1.6,3.53,3.56c0,1.49-0.91,2.76-2.21,3.3l3.45,4.63h-3.28l-3.28-4.37h-3.14v4.37H36.3z"/>
		</g>
		<g>
			<path class="st2" d="M82.92,38.93C81.59,17.21,63.56,0,41.5,0C19.44,0,1.41,17.21,0.08,38.93c0.05,0.87,0.13,1.74,0.24,2.59
				c0.9,7.23,3.65,13.87,7.77,19.45C15.65,71.21,27.8,77.86,41.5,77.86c-19.18,0-34.94-14.93-36.27-33.79
				c-0.06-0.85-0.09-1.71-0.09-2.57c0-0.86,0.03-1.72,0.09-2.57C6.56,20.08,22.32,5.14,41.5,5.14c13.71,0,25.86,6.65,33.41,16.89
				c4.12,5.59,6.87,12.25,7.77,19.49c0.1,0.84,0.19,1.69,0.24,2.55C82.97,43.22,83,42.36,83,41.5C83,40.64,82.97,39.78,82.92,38.93"
				/>
			<path class="st3" d="M0.08,44.07C1.41,65.79,19.44,83,41.5,83c22.06,0,40.09-17.21,41.42-38.93c-0.05-0.87-0.13-1.74-0.24-2.59
				c-0.9-7.23-3.65-13.87-7.77-19.45C67.35,11.79,55.2,5.14,41.5,5.14c19.18,0,34.94,14.93,36.27,33.79
				c0.06,0.85,0.09,1.71,0.09,2.57c0,0.86-0.03,1.72-0.09,2.57C76.44,62.92,60.68,77.86,41.5,77.86c-13.71,0-25.86-6.65-33.41-16.89
				c-4.12-5.59-6.87-12.25-7.77-19.49c-0.1-0.84-0.19-1.69-0.24-2.55C0.03,39.78,0,40.64,0,41.5C0,42.36,0.03,43.22,0.08,44.07"/>
		</g>
	</g>
	<g>
		<path class="st4" d="M138.75,34.7c-1.08-4.95-5.17-7.78-9.85-7.78c-8.5,0-12.1,7.11-12.1,14.13c0,7.02,3.6,14.13,12.1,14.13
			c5.94,0,9.72-4.59,10.3-10.3h3.06c-0.85,7.87-5.85,12.91-13.36,12.91c-10.12,0-15.16-7.96-15.16-16.74
			c0-8.77,5.04-16.74,15.16-16.74c6.08,0,12.1,3.65,12.92,10.39H138.75z"/>
		<path class="st4" d="M147.3,33.89h2.61v5.44H150c1.44-3.73,4.59-5.94,8.78-5.76v2.83c-5.13-0.27-8.64,3.51-8.64,8.32v12.37h-2.83
			V33.89z"/>
		<path class="st4" d="M182.36,45.5c0,6.66-3.87,12.28-10.98,12.28c-7.11,0-10.98-5.62-10.98-12.28s3.87-12.28,10.98-12.28
			C178.49,33.22,182.36,38.84,182.36,45.5z M163.24,45.5c0,4.95,2.7,9.9,8.14,9.9c5.44,0,8.14-4.95,8.14-9.9
			c0-4.95-2.7-9.9-8.14-9.9C165.94,35.6,163.24,40.55,163.24,45.5z"/>
		<path class="st4" d="M187.49,33.89h2.61v4.41h0.09c1.31-3.15,4.54-5.08,8.28-5.08c7.06,0,10.44,5.71,10.44,12.28
			c0,6.57-3.38,12.28-10.44,12.28c-3.46,0-6.84-1.75-8.05-5.08h-0.09v13h-2.83V33.89z M198.47,35.6c-6.25,0-8.14,4.63-8.14,9.9
			c0,4.81,2.11,9.9,8.14,9.9c5.4,0,7.6-5.08,7.6-9.9C206.08,40.69,203.87,35.6,198.47,35.6z"/>
		<path class="st4" d="M229.61,46.54c-0.13,6.61,4.63,8.64,10.48,8.64c3.38,0,8.5-1.84,8.5-6.52c0-3.65-3.64-5.08-6.61-5.81
			l-7.16-1.75c-3.78-0.94-7.24-2.74-7.24-7.74c0-3.15,2.02-9.04,11.07-9.04c6.34,0,11.92,3.42,11.88,9.99h-3.06
			c-0.18-4.9-4.23-7.38-8.77-7.38c-4.18,0-8.05,1.62-8.05,6.39c0,3.02,2.25,4.27,4.86,4.9l7.83,1.94c4.54,1.21,8.32,3.19,8.32,8.46
			c0,2.21-0.9,9.18-12.28,9.18c-7.6,0-13.18-3.42-12.82-11.25H229.61z"/>
		<path class="st4" d="M273.26,41.18c-0.76-3.46-2.88-5.58-6.57-5.58c-5.45,0-8.14,4.95-8.14,9.9c0,4.95,2.7,9.9,8.14,9.9
			c3.51,0,6.39-2.74,6.75-6.61h2.83c-0.76,5.58-4.41,9-9.58,9c-7.11,0-10.98-5.62-10.98-12.28s3.87-12.28,10.98-12.28
			c4.95,0,8.77,2.65,9.4,7.96H273.26z"/>
		<path class="st4" d="M281.18,24.98h2.83v4.54h-2.83V24.98z M281.18,33.89h2.83v23.22h-2.83V33.89z"/>
		<path class="st4" d="M292.02,46.27c0.04,4.14,2.2,9.13,7.65,9.13c4.14,0,6.39-2.43,7.29-5.94h2.83
			c-1.21,5.27-4.27,8.32-10.12,8.32c-7.38,0-10.48-5.67-10.48-12.28c0-6.12,3.1-12.28,10.48-12.28c7.47,0,10.44,6.52,10.21,13.05
			H292.02z M307.05,43.88c-0.14-4.27-2.79-8.28-7.38-8.28c-4.63,0-7.2,4.05-7.65,8.28H307.05z"/>
		<path class="st4" d="M314.57,33.89h2.83v4h0.09c1.03-2.79,4.14-4.68,7.42-4.68c6.52,0,8.5,3.42,8.5,8.95v14.94h-2.83V42.62
			c0-4-1.3-7.02-5.89-7.02c-4.5,0-7.2,3.42-7.29,7.96v13.54h-2.83V33.89z"/>
		<path class="st4" d="M356.06,41.18c-0.76-3.46-2.88-5.58-6.57-5.58c-5.45,0-8.14,4.95-8.14,9.9c0,4.95,2.7,9.9,8.14,9.9
			c3.51,0,6.39-2.74,6.75-6.61h2.83c-0.76,5.58-4.41,9-9.58,9c-7.11,0-10.98-5.62-10.98-12.28s3.87-12.28,10.98-12.28
			c4.95,0,8.77,2.65,9.4,7.96H356.06z"/>
		<path class="st4" d="M365.6,46.27c0.04,4.14,2.2,9.13,7.65,9.13c4.14,0,6.39-2.43,7.29-5.94h2.83c-1.21,5.27-4.27,8.32-10.12,8.32
			c-7.38,0-10.48-5.67-10.48-12.28c0-6.12,3.1-12.28,10.48-12.28c7.47,0,10.44,6.52,10.21,13.05H365.6z M380.63,43.88
			c-0.14-4.27-2.79-8.28-7.38-8.28c-4.63,0-7.2,4.05-7.65,8.28H380.63z"/>
	</g>
	<g>
	</g>
	<g>
	</g>
	<g>
	</g>
	<g>
	</g>
	<g>
	</g>
	<g>
	</g>
</g>
</svg>
