<svg id="Layer_1" data-name="Layer 1" xmlns="http://www.w3.org/2000/svg" viewBox="0 0 1289.41 629.61"><defs><style>.cls-1{fill:#231f20;}.cls-2{fill:#e2231a;}.cls-3{fill:#fff;}</style></defs><title>Fry_s of Arizona Inc_Logo_RGB</title><path class="cls-1" d="M1825.56,752.52c-2.34,11.7-10.4,13.41-19.26,14.32-.26,0-.65-.14-.91-.14-9.12-.26-17-2.85-19.26-14.17V610.7H1671.62c.91,58.56-4.69,144,8.85,184.11,6.37,21.73,25.36,46.86,49.69,54.25,24.87,8.34,54.92,1.44,75.22-12,8.85-5.86,15.74-12.87,19.77-20.56l.27,89.52,114.24-27.32v-268H1825.43Z" transform="translate(-1060.58 -287.95)"/><path class="cls-1" d="M1536.56,579.52h703.92L2256,552.71l37-64h-37l-450.58.13-268.83.13H1356.49c0-41-4.17-86,28.88-112,3.12,13.26,2.61,27.31,8.32,39.28,5.86,13.15,19.91,23.81,33.18,27.33,25.5,3.9,54.66.39,71-22.12,11.45-17.56,14.44-45,5.2-64.8-7-15.88-22.5-32.26-38.38-41-38.78-26.55-99.67-23-140.65-3.13-72,29.94-96.16,105.91-101.5,176.44h-95.77l-52.3,90.56,148.07.79v265l134.15.26-.13-266Z" transform="translate(-1060.58 -287.95)"/><path class="cls-1" d="M1609,597.94c-25.63-5.07-51.78,4.3-72.47,16.92-2.86,1.83-5.6,3.65-8.2,5.45l-.13-9.76H1414V845.29h114.24c0-52.57-1.31-110.73,4.43-163.16a107.82,107.82,0,0,1,3.9-12.63c2.48-6.11,5.6-10,10.67-12.61,3.91,37.21,30.59,56.6,55.18,55.16,20.81-.12,37-9.75,47.36-25.88,12.89-18.47,12.62-45.16-1.81-65.59C1639.09,605.1,1618.41,598.6,1609,597.94Z" transform="translate(-1060.58 -287.95)"/><polygon class="cls-1" points="1022.09 322.74 1013.36 322.74 952.61 322.87 915.66 322.99 952.61 386.9 968.75 414.87 1013.36 337.84 1022.09 322.74"/><path class="cls-1" d="M2312.19,734.05c-12.75-29.55-38.64-48.8-73.26-57-11.06-2.47-23.16-4.3-34.48-7.56-7.81-2.06-15.1-4.55-21.48-9.62-3.77-4.42-1.68-9.51,3.91-11.45,23-7.94,75.2-2.73,116.44,16.79L2316.09,625c-28.23-17.43-58.15-25.38-90.83-29.41-50.34-4.81-100.19,5.74-134.53,45.29a85.19,85.19,0,0,0-16.79,37.6,77.4,77.4,0,0,0,0,28.37,67.33,67.33,0,0,0,1.83,7.28c14.06,33.57,51,38.51,80.54,48.27,26.93,6.12,45.67,6.38,54,11.72,4.42,6.63,2.61,13.53-7.53,15.09-43.73,3.77-82.9-6.63-118.29-25.63l-10.55,26.81-8.84,22.11c3,2.09,5.86,3.9,8.84,5.73,12,7.29,24.33,12.89,37.09,18.6,57.77,22.9,137.66,27.73,184-23.42,12.11-15.21,21-34.48,21.35-54.4v-3A65.89,65.89,0,0,0,2312.19,734.05Z" transform="translate(-1060.58 -287.95)"/><path class="cls-2" d="M1522.62,570.8h703.92L2242,544l37-64h-37l-450.58.14-268.83.12H1342.55c0-41-4.17-86,28.88-112,3.12,13.26,2.61,27.33,8.33,39.3,5.86,13.14,19.91,23.8,33.17,27.32,25.5,3.9,54.66.38,71-22.13,11.45-17.56,14.45-45,5.21-64.78-7-15.88-22.51-32.29-38.4-41-38.78-26.54-99.67-23-140.65-3.1-72,29.91-96.16,105.9-101.49,176.42h-95.77l-52.31,90.56,148.07.79v265l134.14.24-.13-266Z" transform="translate(-1060.58 -287.95)"/><path class="cls-2" d="M1811.62,743.8c-2.34,11.7-10.4,13.41-19.26,14.32-.26,0-.65-.14-.91-.14-9.12-.24-17-2.85-19.26-14.18V602H1657.68c.91,58.56-4.68,144,8.85,184.11,6.37,21.74,25.37,46.86,49.7,54.25,24.86,8.34,54.91,1.44,75.21-12,8.85-5.86,15.75-12.87,19.78-20.55l.26,89.51L1925.73,870V602H1811.48Z" transform="translate(-1060.58 -287.95)"/><path class="cls-2" d="M1595.1,589.22c-25.64-5.07-51.78,4.31-72.48,16.92-2.86,1.83-5.6,3.65-8.19,5.48l-.13-9.76H1400.05V836.59H1514.3c0-52.59-1.3-110.73,4.42-163.19a105.91,105.91,0,0,1,3.9-12.61c2.48-6.12,5.6-10,10.67-12.62,3.91,37.2,30.59,56.59,55.18,55.17,20.82-.14,37-9.76,47.36-25.9,12.89-18.47,12.62-45.14-1.81-65.59C1625.15,596.38,1604.46,589.88,1595.1,589.22Z" transform="translate(-1060.58 -287.95)"/><path class="cls-2" d="M2298.25,725.33c-12.75-29.53-38.65-48.8-73.25-57-11.07-2.47-23.16-4.29-34.48-7.54-7.81-2.09-15.1-4.57-21.48-9.64-3.77-4.41-1.68-9.49,3.91-11.45,23-7.93,75.21-2.72,116.44,16.8l12.76-40.21c-28.23-17.43-58.15-25.37-90.82-29.4-50.36-4.83-100.2,5.72-134.54,45.27a85.39,85.39,0,0,0-16.79,37.6,77.42,77.42,0,0,0,0,28.37,70.32,70.32,0,0,0,1.83,7.3c14.05,33.56,51,38.51,80.55,48.27,26.94,6.1,45.67,6.36,54,11.69,4.43,6.63,2.61,13.53-7.53,15.09-43.73,3.77-82.9-6.63-118.29-25.63L2060,781.67l-8.84,22.12c3,2.08,5.86,3.9,8.84,5.73,12,7.28,24.34,12.87,37.1,18.59,57.77,22.92,137.66,27.73,184-23.4,12.1-15.24,20.94-34.48,21.34-54.4v-3A65.85,65.85,0,0,0,2298.25,725.33Z" transform="translate(-1060.58 -287.95)"/><polygon class="cls-2" points="1008.14 314.02 999.42 314.02 938.67 314.15 901.72 314.28 938.67 378.18 954.8 406.14 999.42 329.12 1008.14 314.02"/><path class="cls-3" d="M1386.86,562.92v-5H1393a8.28,8.28,0,0,0,3-.37,3.27,3.27,0,0,0,.93-.67c.21-.29.3-.66.52-.93a20.65,20.65,0,0,0,.3-4.32V505.23c0-1.69,0-3.95-2.17-4.51-1.85-.66-4-.47-6-.56H1387v-5H1455l.72,24.67h-5.16c-3.5-12.58-9.48-19.6-24.54-19.6-2.89,0-6.19-.27-8.67,1.3-1.44,1.14-1.24,3.2-1.24,4.7v19.32c11,.39,14.13-3.84,16.3-13h5.26V545h-5.26a18.29,18.29,0,0,0-1.75-6.84c-3-5.82-6.61-7.6-13.51-7.6h-1V551.4c0,5,0,6.08,5.88,6.28l6.5.29v5Z" transform="translate(-1060.58 -287.95)"/><path class="cls-3" d="M1483.49,529.81c0,6.28,1.24,14.63,3.93,20.44,3,6.38,8.55,9.5,16.09,9.5,12.37,0,14.54-11.26,16.18-20a60.55,60.55,0,0,0,.82-10.61c0-11-1.86-30.51-18.25-30.51C1484.73,498.65,1483.49,518.18,1483.49,529.81Zm-9.59,24.1c-6.6-6.47-10.83-15.75-10.83-24.58a33.76,33.76,0,0,1,11.55-25.7c6.91-6.19,17.32-9.84,27-9.84,11,0,20.32,3,28.15,10.23a34.46,34.46,0,0,1,11.15,25,35.37,35.37,0,0,1-12.07,25.7c-8,6.94-16.91,9.58-27.84,9.58C1490.71,564.34,1480.92,560.76,1473.9,553.91Z" transform="translate(-1060.58 -287.95)"/><path class="cls-3" d="M1569.39,529.81c0,6.28,1.25,14.63,3.92,20.44,3,6.38,8.57,9.5,16.09,9.5,12.38,0,14.54-11.26,16.19-20a60.67,60.67,0,0,0,.82-10.61c0-11-1.85-30.51-18.25-30.51C1570.64,498.65,1569.39,518.18,1569.39,529.81Zm-9.59,24.1c-6.6-6.47-10.83-15.75-10.83-24.58a33.72,33.72,0,0,1,11.56-25.7c6.9-6.19,17.32-9.84,27-9.84,11,0,20.31,3,28.15,10.23a34.48,34.48,0,0,1,11.14,25,35.4,35.4,0,0,1-12.06,25.7c-8,6.94-16.92,9.58-27.84,9.58C1576.61,564.34,1566.82,560.76,1559.8,553.91Z" transform="translate(-1060.58 -287.95)"/><path class="cls-3" d="M1661.9,550.55c0,1.87-.31,4.5,1,6.09,2,1.23,4.65,1.32,6.19,1.32,16.91,0,20.73-8.08,22.69-21.78a50.58,50.58,0,0,0,.41-6.85,64.79,64.79,0,0,0-.82-10.88c-2.27-12.1-7.63-18.47-21.76-18.47-1.55,0-5,.08-6.81,1.58-1,.86-.93,2.91-.93,4Zm-29.08,12.37v-5a62.32,62.32,0,0,0,8.35-.37,2.3,2.3,0,0,0,1.24-.67,2.36,2.36,0,0,0,.83-1.31,9,9,0,0,0,.3-3.28V503.63a2.75,2.75,0,0,0-2.07-3c-2-.65-4.12-.47-6.17-.47h-2.48v-5H1668l9.59.2c5.27.08,9.69.36,14.55,2.33a34.56,34.56,0,0,1,11.34,6.86c6.7,6.74,9.18,14.81,9.18,23.72a38.84,38.84,0,0,1-3.71,17.37,31.18,31.18,0,0,1-17.22,14.91c-6.39,2.34-15.16,2.34-22.06,2.34Z" transform="translate(-1060.58 -287.95)"/><path class="cls-3" d="M1768.45,537.3h5c4.13,10.7,13.92,22.16,27.75,22.16,7.21,0,15-3.1,15-10.7,0-6.28-4.86-8.83-11-9.84l-7.43-1.31c-7.62-1.32-14.11-2.64-20.51-7a18.92,18.92,0,0,1-8.76-15.48c0-14.45,12.68-21.38,27.32-21.38a32.83,32.83,0,0,1,18,5.15l5.57-4.59h4.44l1.33,24.58H1820c-3.81-10-12.78-20.28-25.58-20.28-6.48,0-14.13,2.91-14.13,9.77s6.82,8.64,12.79,9.76l6.5,1.12c14.86,2.8,28.86,6.75,28.86,23.18a20.86,20.86,0,0,1-8.64,16.7c-5.26,3.84-12.37,5.15-19,5.15a34.81,34.81,0,0,1-20.52-6.3l-6.49,5.74h-4.53Z" transform="translate(-1060.58 -287.95)"/><path class="cls-3" d="M1833.53,520.61l1.65-25.43h68.18l1.55,25.43h-5.16c-1.44-8.72-6.19-20.82-17.84-20.82-1.23,0-3.41.37-3.5,1.77s-.11,2.74-.11,4v47.49c0,3.36,0,4.22,3.93,4.68,2.57.29,5.26.11,7.83.2v5h-41.67v-5c3.1,0,6.08-.29,9.07-.56a2.67,2.67,0,0,0,2.06-1.89,8.4,8.4,0,0,0,.42-3.56V505.51c0-1.31,0-2.72-.11-4s-2.26-1.79-3.5-1.79c-11.56,0-16.4,12.58-17.74,20.93Z" transform="translate(-1060.58 -287.95)"/><path class="cls-3" d="M1930.89,529.81c0,6.28,1.24,14.63,3.92,20.44,3,6.38,8.55,9.5,16.09,9.5,12.37,0,14.54-11.26,16.19-20a60.54,60.54,0,0,0,.81-10.61c0-11-1.84-30.51-18.24-30.51C1932.13,498.65,1930.89,518.18,1930.89,529.81Zm-9.59,24.1c-6.6-6.47-10.83-15.75-10.83-24.58a33.7,33.7,0,0,1,11.56-25.7c6.88-6.19,17.32-9.84,27-9.84,11,0,20.32,3,28.15,10.23a34.48,34.48,0,0,1,11.13,25,35.4,35.4,0,0,1-12.06,25.7c-8,6.94-16.91,9.58-27.84,9.58C1938.11,564.34,1928.32,560.76,1921.31,553.91Z" transform="translate(-1060.58 -287.95)"/><path class="cls-3" d="M2023.6,525.41c2.79.08,5.47-.11,8.26-.19,10.09-.29,15.87-3.28,15.87-13.42,0-9.09-5.15-11.81-14.54-11.81-2.48,0-5.16-.11-7.53.65-2,1-2.06,3.47-2.06,5.36Zm11.56-30.22,7.73.2c6.08.08,11.56.64,16.91,3.73a15.72,15.72,0,0,1,7.52,12.95c0,11.63-11,16.14-22.17,16.89v.19c8.47,1.69,13.41,6.1,15.48,14.08l1.65,5.89a25.08,25.08,0,0,0,2.07,6.11,4.31,4.31,0,0,0,.91,1.12c5.27,1.87,5.89-5.73,6.19-8.72h5.16a19.43,19.43,0,0,1-.63,5.52c-1.64,8.08-9.06,11.18-17.42,11.18a16.87,16.87,0,0,1-11.75-4.22c-2.88-2.72-3.6-6.29-3.92-10l-.41-5.63c-.63-7.89-1.14-13.52-10.94-14.08-1.54-.08-3.1-.08-4.64-.08h-3.3V552c0,1,0,2.16.1,3.19.51,1.86,1.15,2.45,3.29,2.53a50.42,50.42,0,0,0,5.37.29h2.58v5h-40.52v-5c1.85,0,3.81,0,5.67-.1,4.94-.11,4.94-1.69,5.15-5.54V508.9c0-1.61.41-6.38-.82-7.52-1.75-1.59-4.33-1.12-6.71-1.22h-3.29v-5Z" transform="translate(-1060.58 -287.95)"/><path class="cls-3" d="M2078.06,562.92v-5c2.78-.29,9.69,1,10.62-2.45a8.75,8.75,0,0,0,.32-3.28V504.3a3.56,3.56,0,0,0-.32-2.08,2.24,2.24,0,0,0-2-1.6,44.4,44.4,0,0,0-8.66-.47v-5h69.4l.73,24.39H2143c-4.44-13.7-9.59-19.51-26.09-19.51a19.13,19.13,0,0,0-7.31,1A3.34,3.34,0,0,0,2108,503a10.8,10.8,0,0,0-.62,4.77v17.74c10.21.75,15.17-4.59,16.29-13.34h5.27l.4,32.66h-5.57c-.41-9-6.08-14.63-16.4-14.35V551c0,4.14-.2,6.11,4.84,6.59,1.86.17,3.71.37,5.57.37,16.29,0,22.07-6.67,26.4-20.27l5.15.38-1.12,24.85Z" transform="translate(-1060.58 -287.95)"/><path class="cls-3" d="M2159.94,537.3H2165c4.13,10.7,13.92,22.16,27.74,22.16,7.22,0,14.95-3.1,14.95-10.7,0-6.28-4.85-8.83-11-9.84l-7.42-1.31c-7.63-1.32-14.13-2.64-20.53-7a18.91,18.91,0,0,1-8.76-15.48c0-14.45,12.68-21.38,27.33-21.38a32.84,32.84,0,0,1,18,5.15l5.56-4.59h4.43l1.35,24.58h-5.17c-3.81-10-12.78-20.28-25.55-20.28-6.51,0-14.14,2.91-14.14,9.77s6.8,8.64,12.78,9.76l6.5,1.12c14.84,2.8,28.87,6.75,28.87,23.18a20.9,20.9,0,0,1-8.66,16.7c-5.25,3.84-12.38,5.15-19,5.15a34.82,34.82,0,0,1-20.52-6.3l-6.5,5.74h-4.54Z" transform="translate(-1060.58 -287.95)"/><path class="cls-1" d="M2298,891.57a26,26,0,1,1,26,26A25.92,25.92,0,0,1,2298,891.57Zm45.8,0c0-11.67-8.65-19.94-19.81-19.94-11.35,0-19.81,8.27-19.81,19.94s8.46,19.81,19.81,19.81C2335.16,911.38,2343.81,903.11,2343.81,891.57Zm-7.34,13.19h-6.56l-6-11.41h-4.2v11.41h-6v-27h13.11c6.25,0,10.51,1.13,10.51,8.27,0,5-2.56,7-7.34,7.37Zm-9.59-15.49c3,0,4.73-.66,4.73-4.07,0-2.74-3.47-2.74-6.11-2.74h-5.83v6.81Z" transform="translate(-1060.58 -287.95)"/></svg>